<svg width="50" height="50" viewBox="0 0 50 50" fill="none" xmlns="http://www.w3.org/2000/svg">
<g clip-path="url(#clip0_2_104)">
<path d="M25 50C38.8071 50 50 38.8071 50 25C50 11.1929 38.8071 0 25 0C11.1929 0 0 11.1929 0 25C0 38.8071 11.1929 50 25 50Z" fill="#5B6460"/>
<g clip-path="url(#clip1_2_104)">
<path d="M24.5035 20.1083C21.5259 20.1083 19.1152 22.5215 19.1152 25.4965C19.1152 28.4742 21.5285 30.8848 24.5035 30.8848C27.4811 30.8848 29.8917 28.4715 29.8917 25.4965C29.8917 22.5189 27.4785 20.1083 24.5035 20.1083ZM24.5035 28.9939C22.5706 28.9939 21.0061 27.4285 21.0061 25.4965C21.0061 23.5645 22.5715 21.9992 24.5035 21.9992C26.4355 21.9992 28.0009 23.5645 28.0009 25.4965C28.0017 27.4285 26.4364 28.9939 24.5035 28.9939Z" fill="#E9ECE0"/>
<path d="M28.8297 15.0665C26.8977 14.9763 22.1123 14.9807 20.1786 15.0665C18.4793 15.1461 16.9804 15.5565 15.7721 16.7648C13.7526 18.7843 14.0107 21.5056 14.0107 25.4965C14.0107 29.581 13.7832 32.2392 15.7721 34.2281C17.7994 36.2546 20.5601 35.9895 24.5037 35.9895C28.5497 35.9895 29.9462 35.9921 31.3768 35.4382C33.3219 34.6831 34.7902 32.9445 34.9337 29.8216C35.0247 27.8887 35.0194 23.1042 34.9337 21.1705C34.7604 17.4841 32.7821 15.2485 28.8297 15.0665ZM31.8878 32.892C30.5639 34.2158 28.7273 34.0977 24.4783 34.0977C20.1033 34.0977 18.3489 34.1625 17.0688 32.8788C15.5944 31.4115 15.8613 29.0551 15.8613 25.4825C15.8613 20.6481 15.3652 17.1665 20.2171 16.918C21.3318 16.8786 21.6599 16.8655 24.4661 16.8655L24.5054 16.8917C29.1683 16.8917 32.8267 16.4035 33.0463 21.2545C33.0962 22.3613 33.1076 22.6938 33.1076 25.4956C33.1067 29.8198 33.1889 31.5847 31.8878 32.892Z" fill="#E9ECE0"/>
<path d="M30.1053 21.1546C30.8007 21.1546 31.3644 20.5909 31.3644 19.8955C31.3644 19.2001 30.8007 18.6364 30.1053 18.6364C29.4099 18.6364 28.8462 19.2001 28.8462 19.8955C28.8462 20.5909 29.4099 21.1546 30.1053 21.1546Z" fill="#E9ECE0"/>
</g>
</g>
<defs>
<clipPath id="clip0_2_104">
<rect width="50" height="50" fill="white"/>
</clipPath>
<clipPath id="clip1_2_104">
<rect width="21" height="21" fill="white" transform="translate(14 15)"/>
</clipPath>
</defs>
</svg>
